# Blender 4.5.3 LTS
# www.blender.org
mtllib apple2.mtl
o apple.001
v 0.552598 0.329823 -0.519646
v 0.563681 0.401183 0.564362
v -0.531328 0.273849 -0.520189
v -0.449680 -0.521990 0.478226
v -0.446945 -0.752809 -0.124163
v -0.437960 -0.711047 0.254926
v 0.245438 -0.711047 -0.428472
v -0.129294 -0.731504 -0.459273
v 0.546157 -0.258303 -0.517611
v -0.542221 -0.138114 0.570767
v -0.531328 0.273849 0.558223
v 0.546157 -0.258303 0.555645
v -0.542221 -0.138114 -0.532733
v -0.454086 -0.508430 -0.444598
v 0.221545 0.494475 0.645947
v -0.291587 0.434819 0.608707
v 0.664823 0.442468 -0.257721
v 0.663570 0.460550 0.309155
v -0.104197 -0.770645 0.465760
v 0.336470 -0.671457 0.462220
v -0.622232 0.462894 0.169302
v -0.580161 0.434819 -0.282098
v -0.291587 0.434819 -0.570673
v 0.125912 0.457130 -0.617364
v 0.477862 -0.742538 0.149773
v 0.452732 -0.671457 -0.307924
v 0.344520 0.590876 -0.315974
v -0.250018 0.591947 -0.361794
v 0.362319 0.554700 0.033394
v -0.377444 0.598003 0.037833
v 0.189186 0.632585 0.408155
v -0.325462 0.590876 0.354008
v 0.323278 -0.276885 0.698139
v 0.312405 0.178043 0.727683
v 0.009529 -0.471255 0.670011
v 0.009529 -0.138114 0.778895
v -0.175047 0.179161 0.772954
v -0.304220 -0.276885 0.698139
v -0.669593 -0.276885 0.332766
v -0.699137 0.178043 0.321893
v -0.641465 -0.471255 0.019017
v -0.750349 -0.138114 0.019017
v -0.754820 0.195026 0.019017
v -0.669593 -0.276885 -0.294732
v -0.699137 0.178043 -0.283859
v -0.208767 -0.849068 -0.247113
v 0.249978 -0.835748 -0.197548
v -0.205828 -0.875976 0.206574
v 0.093462 -0.852352 0.258036
v 0.688651 -0.276885 -0.294732
v 0.718195 0.178043 -0.283859
v 0.645810 -0.498451 0.161715
v 0.769407 -0.138114 0.019017
v 0.773878 0.195026 0.019017
v 0.741694 -0.024631 0.308378
v -0.304220 -0.276885 -0.660105
v -0.293347 0.178043 -0.689649
v 0.009529 -0.471255 -0.631977
v 0.009529 -0.138114 -0.740861
v 0.009529 0.195026 -0.745332
v 0.323278 -0.276885 -0.660105
v 0.312405 0.178043 -0.689649
v -0.061959 0.525422 0.006747
v 0.040758 0.527941 0.066274
v 0.088971 0.520063 0.007430
v -0.033724 0.522371 -0.063202
v 0.030422 0.728446 -0.064852
v 0.006611 0.739022 0.013853
v 0.070719 0.708093 0.057659
v 0.105286 0.688555 -0.012712
v 0.183225 0.910127 -0.084408
v 0.181207 0.925942 -0.016836
v 0.232192 0.874117 0.034172
v 0.241355 0.845993 -0.023591
v -0.058373 -0.846118 -0.031299
v 0.048050 -0.847293 -0.065954
v 0.019122 -0.845824 0.112832
v -0.103642 -0.842613 0.086963
vn -0.1351 0.9848 0.1089
vn -0.0845 0.9958 0.0363
vn 0.0345 0.9040 -0.4262
vn -0.1083 0.8047 -0.5838
vn -0.4425 0.8920 0.0928
vn 0.1066 -0.3089 0.9451
vn -0.1066 -0.3089 0.9451
vn -0.2057 -0.1014 0.9734
vn 0.0896 0.2731 0.9578
vn -0.3381 -0.5094 0.7914
vn -0.9451 -0.3089 0.1066
vn -0.9451 -0.3089 -0.1066
vn -0.7897 -0.4880 0.3717
vn -0.9181 0.3488 0.1883
vn -0.7875 -0.4984 -0.3625
vn 0.1049 -0.9927 -0.0596
vn 0.4086 -0.7997 -0.4399
vn 0.2910 -0.9545 0.0652
vn 0.3478 -0.8678 0.3548
vn 0.0090 -0.9276 0.3734
vn -0.5616 -0.8209 0.1037
vn 0.9319 -0.3528 -0.0838
vn 0.9589 0.2122 -0.1882
vn 0.7973 -0.0292 0.6029
vn 0.8655 -0.2994 0.4015
vn -0.1066 -0.3089 -0.9451
vn 0.1066 -0.3089 -0.9451
vn -0.3730 -0.4912 -0.7871
vn 0.1881 0.3622 -0.9129
vn 0.3520 0.7339 -0.5810
vn -0.4693 0.7480 -0.4693
vn -0.5219 0.8470 -0.1013
vn -0.5777 0.6728 0.4621
vn -0.1238 0.8387 0.5303
vn 0.3323 0.8345 0.4395
vn 0.3329 0.9420 -0.0420
vn 0.0924 0.0723 0.9931
vn 0.4082 0.9099 0.0734
vn 0.5407 -0.0416 0.8402
vn 0.5119 -0.4282 0.7448
vn -0.5080 0.0396 0.8604
vn 0.3012 0.3186 0.8987
vn -0.1202 0.4972 0.8592
vn -0.4130 0.3515 0.8402
vn 0.2306 -0.4936 0.8385
vn -0.5855 -0.3206 0.7446
vn -0.2271 -0.4885 0.8425
vn -0.9836 -0.0132 0.1801
vn -0.9836 -0.0132 -0.1801
vn -0.8697 -0.0447 0.4915
vn -0.7446 -0.3206 0.5855
vn -0.8645 0.4902 -0.1111
vn -0.8087 0.4321 0.3991
vn -0.8221 0.0390 -0.5679
vn -0.8194 0.3826 -0.4267
vn -0.8415 -0.4898 0.2280
vn -0.7469 -0.3169 -0.5845
vn -0.8513 -0.4768 -0.2190
vn -0.5415 -0.6328 -0.5535
vn 0.1779 0.9213 -0.3459
vn 0.0755 -0.8839 -0.4615
vn -0.4392 -0.7590 0.4807
vn 0.5689 -0.8073 -0.1566
vn 0.1925 -0.8369 0.5124
vn 0.9836 -0.0132 -0.1801
vn -0.3971 -0.9163 -0.0518
vn 0.8402 -0.0416 -0.5407
vn 0.9494 -0.2507 0.1892
vn 0.9948 -0.0134 0.1005
vn 0.7448 -0.4282 -0.5119
vn 0.9193 0.3934 -0.0105
vn 0.8592 0.2191 -0.4624
vn 0.7343 -0.4810 0.4790
vn 0.9093 0.1458 0.3898
vn 0.8491 -0.5022 -0.1641
vn -0.1801 -0.0132 -0.9836
vn 0.1801 -0.0132 -0.9836
vn -0.4915 -0.0447 -0.8697
vn -0.5845 -0.3169 -0.7469
vn -0.1228 0.4789 -0.8692
vn -0.4290 0.3822 -0.8185
vn 0.5816 -0.0092 -0.8135
vn 0.3220 0.4332 -0.8418
vn 0.5008 -0.4791 -0.7209
vn 0.2280 -0.4898 -0.8415
vn -0.2084 -0.4612 -0.8625
vn -0.1027 0.9714 -0.2142
vn 0.4911 -0.1501 -0.8581
vn 0.2310 0.9712 0.0589
vn 0.6606 -0.5740 0.4839
vn -0.4995 0.1318 0.8563
vn 0.8767 -0.1236 0.4649
vn -0.9078 0.2801 -0.3123
vn 0.7888 0.6033 -0.1177
vn -0.7632 0.6237 -0.1688
vn 0.3797 -0.3862 -0.8406
vn -0.3424 0.4548 0.8222
vn 0.0942 -0.9912 -0.0928
vn 0.0430 -0.9988 -0.0216
vn -0.0300 -0.9994 0.0182
vn 0.0330 -0.9988 -0.0370
vn -0.0166 0.9710 0.2383
vn -0.0726 0.9847 0.1583
vn 0.5331 -0.8147 0.2282
vn 0.4366 0.7434 -0.5068
vn -0.5437 0.6393 -0.5437
vn -0.4552 0.8762 -0.1584
vn -0.5552 0.6742 0.4870
vn -0.1358 0.8486 0.5113
vn 0.3830 0.8553 0.3489
vn 0.3226 0.9461 -0.0295
vn 0.2248 -0.0578 0.9727
vn 0.5608 -0.0258 0.8275
vn -0.4761 -0.0094 0.8793
vn 0.1400 -0.5938 0.7924
vn -0.9727 -0.0578 0.2248
vn -0.9727 -0.0578 -0.2248
vn -0.8221 0.0390 0.5679
vn -0.8908 0.4141 -0.1870
vn -0.8697 -0.0447 -0.4915
vn -0.7992 -0.5951 0.0845
vn -0.5000 -0.6939 -0.5181
vn 0.1779 0.9167 -0.3578
vn 0.0868 -0.8759 -0.4747
vn -0.4727 -0.6846 0.5548
vn 0.9727 -0.0578 -0.2248
vn 0.8150 -0.0109 -0.5794
vn 0.9622 0.1546 0.2244
vn 0.7264 -0.5217 0.4474
vn 0.8197 -0.5575 -0.1316
vn -0.2248 -0.0578 -0.9727
vn 0.2248 -0.0578 -0.9727
vn -0.5688 0.0401 -0.8215
vn -0.1870 0.4140 -0.8908
vn 0.5407 -0.0416 -0.8402
vn 0.5085 -0.4745 -0.7185
vn 0.0981 -0.5861 -0.8043
vn -0.1056 0.9628 -0.2489
vn 0.5036 -0.1636 -0.8483
vn 0.2286 0.9722 0.0499
vn 0.7079 -0.5844 0.3968
vn -0.5173 0.1265 0.8464
vn 0.7736 0.0009 0.6337
vn -0.8814 0.2952 -0.3687
vn 0.7807 0.6016 -0.1691
vn -0.7209 0.6238 -0.3019
vn 0.3936 -0.4191 -0.8182
vn -0.3518 0.4576 0.8166
vn 0.0268 -0.9686 -0.2473
vn -0.0787 -0.9969 -0.0045
vn -0.0088 -0.9999 0.0068
vn -0.0054 -0.9998 0.0174
vt 0.721104 0.625000
vt 0.687500 0.625000
vt 0.687500 0.562500
vt 0.818128 0.625000
vt 0.812500 0.687500
vt 0.717518 0.687500
vt 0.726413 0.500000
vt 0.797724 0.562500
vt 0.812500 0.500000
vt 0.875000 0.655371
vt 0.473804 0.812500
vt 0.500000 0.875000
vt 0.437500 0.875000
vt 0.473804 0.937500
vt 0.562500 0.912289
vt 0.562500 0.812500
vt 0.625000 0.832942
vt 0.412443 1.000000
vt 0.375000 0.903797
vt 0.473804 0.062500
vt 0.500000 0.125000
vt 0.437500 0.125000
vt 0.473804 0.187500
vt 0.412443 0.000000
vt 0.375000 0.062500
vt 0.625000 0.094629
vt 0.562500 0.125000
vt 0.562500 0.062500
vt 0.416384 0.250000
vt 0.375000 0.161833
vt 0.228635 0.611019
vt 0.187500 0.671946
vt 0.199605 0.562500
vt 0.312500 0.500000
vt 0.375000 0.529972
vt 0.312500 0.571138
vt 0.375000 0.658774
vt 0.272310 0.684015
vt 0.345028 0.750000
vt 0.221203 0.750000
vt 0.125000 0.687500
vt 0.125000 0.588167
vt 0.473804 0.562500
vt 0.500000 0.625000
vt 0.437500 0.657366
vt 0.562500 0.562500
vt 0.625000 0.573311
vt 0.562500 0.625000
vt 0.522439 0.687500
vt 0.625823 0.750000
vt 0.475658 0.750000
vt 0.473804 0.312500
vt 0.500000 0.375000
vt 0.437500 0.375000
vt 0.473804 0.437500
vt 0.375000 0.338208
vt 0.562500 0.375000
vt 0.625000 0.398587
vt 0.562500 0.437500
vt 0.613592 0.500000
vt 0.875000 0.562500
vt 0.875000 0.750000
vt 0.812500 0.750000
vt 0.707942 0.750000
vt 0.625000 0.687500
vt 0.500000 1.000000
vt 0.595842 1.000000
vt 0.625000 0.937500
vt 0.375000 0.779972
vt 0.562500 0.187500
vt 0.500000 0.000000
vt 0.625000 0.187500
vt 0.595842 0.000000
vt 0.500000 0.250000
vt 0.595842 0.250000
vt 0.213208 0.500000
vt 0.742692 0.649488
vt 0.785587 0.625000
vt 0.475658 0.500000
vt 0.562500 0.312500
vt 0.625000 0.312500
vt 0.375000 0.437500
vt 0.742692 0.649488
vt 0.774950 0.599173
vt 0.785587 0.625000
vt 0.256332 0.657311
vt 0.264972 0.614029
vt 0.218717 0.650578
vt 0.218717 0.650578
vt 0.875000 0.500000
vt 0.125000 0.500000
vt 0.125000 0.750000
vt 0.228635 0.611019
s 0
usemtl apple_green
f 65/1/1 29/2/1 27/3/1
f 30/4/2 32/5/2 31/6/2
f 24/7/3 28/8/3 27/3/3
f 23/9/4 28/8/4 24/7/4
f 30/4/5 21/10/5 32/5/5
f 33/11/6 36/12/6 35/13/6
f 36/12/7 38/14/7 35/13/7
f 36/12/8 37/15/8 38/14/8
f 34/16/9 15/17/9 37/15/9
f 38/14/10 4/18/10 19/19/10
f 39/20/11 42/21/11 41/22/11
f 42/21/12 44/23/12 41/22/12
f 4/24/13 39/20/13 6/25/13
f 21/26/14 43/27/14 40/28/14
f 44/23/15 14/29/15 5/30/15
f 75/31/16 48/32/16 46/33/16
f 7/34/17 26/35/17 47/36/17
f 47/36/18 25/37/18 49/38/18
f 25/37/19 20/39/19 49/38/19
f 49/38/20 19/40/20 48/32/20
f 48/32/21 6/41/21 5/42/21
f 50/43/22 53/44/22 52/45/22
f 51/46/23 17/47/23 54/48/23
f 55/49/24 2/50/24 12/51/24
f 55/49/25 12/51/25 52/45/25
f 56/52/26 59/53/26 58/54/26
f 59/53/27 61/55/27 58/54/27
f 14/29/28 56/52/28 8/56/28
f 60/57/29 24/58/29 62/59/29
f 27/3/30 1/60/30 24/7/30
f 23/9/31 22/61/31 28/8/31
f 30/4/32 22/61/32 21/10/32
f 11/62/33 32/5/33 21/10/33
f 16/63/34 31/6/34 32/5/34
f 2/50/35 31/6/35 15/64/35
f 18/65/36 29/2/36 31/6/36
f 36/12/37 34/16/37 37/15/37
f 17/47/38 27/3/38 29/2/38
f 12/51/39 34/16/39 33/11/39
f 20/39/40 12/51/40 33/11/40
f 10/66/41 37/15/41 11/67/41
f 2/50/42 15/17/42 34/16/42
f 37/15/43 15/17/43 16/68/43
f 37/15/44 16/68/44 11/67/44
f 35/13/45 20/69/45 33/11/45
f 38/14/46 10/66/46 4/18/46
f 35/13/47 38/14/47 19/19/47
f 42/21/48 40/28/48 43/27/48
f 45/70/49 42/21/49 43/27/49
f 10/71/50 40/28/50 39/20/50
f 4/24/51 10/71/51 39/20/51
f 22/72/52 43/27/52 21/26/52
f 11/73/53 21/26/53 40/28/53
f 13/74/54 45/70/54 3/75/54
f 45/70/55 22/72/55 3/75/55
f 41/22/56 6/25/56 39/20/56
f 44/23/57 13/74/57 14/29/57
f 41/22/58 44/23/58 5/30/58
f 5/42/59 8/76/59 46/33/59
f 30/4/60 64/77/60 63/78/60
f 8/76/61 47/36/61 46/33/61
f 19/40/62 6/41/62 48/32/62
f 47/36/63 26/35/63 25/37/63
f 49/38/64 20/39/64 19/40/64
f 53/44/65 51/46/65 54/48/65
f 46/33/66 48/32/66 5/42/66
f 9/79/67 51/46/67 50/43/67
f 53/44/68 55/49/68 52/45/68
f 53/44/69 54/48/69 55/49/69
f 26/35/70 9/79/70 50/43/70
f 18/65/71 54/48/71 17/47/71
f 1/60/72 17/47/72 51/46/72
f 20/39/73 52/45/73 12/51/73
f 55/49/74 18/65/74 2/50/74
f 52/45/75 26/35/75 50/43/75
f 59/53/76 57/80/76 60/57/76
f 62/59/77 59/53/77 60/57/77
f 13/74/78 57/80/78 56/52/78
f 14/29/79 13/74/79 56/52/79
f 60/57/80 23/81/80 24/58/80
f 3/75/81 23/81/81 57/80/81
f 9/79/82 62/59/82 1/60/82
f 62/59/83 24/58/83 1/60/83
f 26/35/84 61/55/84 9/79/84
f 7/82/85 58/54/85 61/55/85
f 8/56/86 56/52/86 58/54/86
f 64/83/87 29/2/87 65/1/87
f 30/4/89 66/84/89 28/8/89
f 48/32/98 77/86/98 49/38/98
f 49/38/99 76/87/99 47/36/99
f 75/31/100 77/86/100 78/88/100
f 76/87/101 46/33/101 47/36/101
f 27/3/102 28/8/102 66/84/102
f 66/84/103 65/1/103 27/3/103
f 75/31/104 78/89/104 48/32/104
f 27/3/105 17/47/105 1/60/105
f 23/9/106 3/90/106 22/61/106
f 30/4/107 28/8/107 22/61/107
f 11/62/108 16/63/108 32/5/108
f 16/63/109 15/64/109 31/6/109
f 2/50/110 18/65/110 31/6/110
f 18/65/111 17/47/111 29/2/111
f 36/12/112 33/11/112 34/16/112
f 12/51/113 2/50/113 34/16/113
f 10/66/114 38/14/114 37/15/114
f 35/13/115 19/19/115 20/69/115
f 42/21/116 39/20/116 40/28/116
f 45/70/117 44/23/117 42/21/117
f 10/71/118 11/73/118 40/28/118
f 22/72/119 45/70/119 43/27/119
f 13/74/120 44/23/120 45/70/120
f 41/22/121 5/30/121 6/25/121
f 5/42/122 14/91/122 8/76/122
f 30/4/123 31/6/123 64/77/123
f 8/76/124 7/34/124 47/36/124
f 19/40/125 4/92/125 6/41/125
f 53/44/126 50/43/126 51/46/126
f 9/79/127 1/60/127 51/46/127
f 18/65/128 55/49/128 54/48/128
f 20/39/129 25/37/129 52/45/129
f 52/45/130 25/37/130 26/35/130
f 59/53/131 56/52/131 57/80/131
f 62/59/132 61/55/132 59/53/132
f 13/74/133 3/75/133 57/80/133
f 60/57/134 57/80/134 23/81/134
f 9/79/135 61/55/135 62/59/135
f 26/35/136 7/82/136 61/55/136
f 7/82/137 8/56/137 58/54/137
f 64/83/138 31/6/138 29/2/138
f 30/4/140 63/85/140 66/84/140
f 48/32/149 78/88/149 77/86/149
f 49/38/150 77/86/150 76/87/150
f 75/31/151 76/87/151 77/86/151
f 76/87/152 75/93/152 46/33/152
usemtl brown
f 66/84/88 70/1/88 65/1/88
f 70/1/90 73/83/90 69/83/90
f 64/77/91 68/78/91 63/78/91
f 64/83/92 70/1/92 69/83/92
f 66/84/93 68/85/93 67/84/93
f 72/85/94 74/1/94 71/84/94
f 67/84/95 72/85/95 71/84/95
f 67/84/96 74/1/96 70/1/96
f 69/77/97 72/78/97 68/78/97
f 66/84/139 67/84/139 70/1/139
f 70/1/141 74/1/141 73/83/141
f 64/77/142 69/77/142 68/78/142
f 64/83/143 65/1/143 70/1/143
f 66/84/144 63/85/144 68/85/144
f 72/85/145 73/77/145 74/1/145
f 67/84/146 68/85/146 72/85/146
f 67/84/147 71/84/147 74/1/147
f 69/77/148 73/77/148 72/78/148
