# Blender 4.5.3 LTS
# www.blender.org
mtllib fruits.mtl
o Cube.028
v -0.588153 0.520812 4.639548
v -0.568406 0.527911 4.639429
v -0.568406 0.525838 4.613398
v -0.636485 0.666250 4.633259
v -0.636485 0.663537 4.605540
v -0.654196 0.659842 4.633156
v -0.765142 0.836317 4.630630
v -0.765917 0.835237 4.611868
v -0.780250 0.825185 4.631895
v -0.809758 0.893032 4.640393
v -0.812827 0.890051 4.599370
v -0.835486 0.861075 4.644640
v -0.838555 0.858094 4.603618
v -0.781025 0.824104 4.613132
v -0.654196 0.657130 4.605437
v -0.588153 0.518740 4.613517
v -0.577822 0.404822 4.646247
v -0.577369 0.398296 4.619197
v -0.553100 0.412266 4.645838
v -0.552449 0.405851 4.618890
v -0.415578 0.328124 4.748250
v -0.711005 0.116771 4.758081
v -0.703045 0.282581 4.794855
v -0.654991 0.406960 4.563100
v -0.759052 0.237159 4.491077
v -0.680263 0.015611 4.576179
v -0.564238 -0.017994 4.576554
v -0.481367 0.329382 4.424491
v -0.385290 0.181108 4.485126
v -0.438209 0.061469 4.519596
v -0.480806 -0.002266 4.666786
v -0.385369 0.322788 4.511023
v -0.492609 0.426010 4.626214
v -0.599084 0.104228 4.806420
v -0.441566 0.142199 4.771054
v -0.562280 0.424306 4.706354
v -0.663660 0.413846 4.678631
v -0.773277 0.312764 4.646678
v -0.801046 0.197193 4.642949
v -0.648198 0.135789 4.423663
v -0.635083 0.318689 4.416649
v -0.540415 0.121492 4.414391
v -0.382102 0.105544 4.603086
v -0.349738 0.281305 4.639997
v -0.534460 0.255949 4.833091
v -0.532321 0.362505 4.799428
v -0.589171 -0.004135 4.705200
v -0.537855 0.422784 4.558446
v -0.608127 0.396135 4.648053
v -0.575282 0.397181 4.612116
vn -0.9961 -0.0883 0.0070
vn -0.0008 0.0576 0.9983
vn 0.9913 0.1315 -0.0074
vn 0.8972 0.4396 -0.0430
vn -0.0191 0.0369 0.9991
vn 0.7962 0.6013 -0.0675
vn 0.0499 0.0456 0.9977
vn 0.7784 0.6241 -0.0681
vn 0.2037 -0.0340 0.9784
vn -0.7781 0.6281 0.0126
vn -0.5160 -0.8537 0.0705
vn 0.0508 -0.1805 -0.9823
vn -0.7936 -0.6055 0.0593
vn -0.0059 0.0324 -0.9995
vn -0.9027 -0.4288 0.0341
vn 0.0123 -0.0509 -0.9986
vn 0.0019 -0.0469 -0.9989
vn -0.9510 0.2350 -0.2011
vn -0.6746 0.5924 0.4404
vn -0.7228 0.5933 -0.3543
vn -0.8352 -0.4291 -0.3439
vn -0.7812 -0.5922 0.1973
vn -0.0898 -0.0317 -0.9955
vn -0.5168 0.0042 -0.8561
vn 0.1962 -0.7575 -0.6227
vn 0.9666 0.0466 -0.2520
vn 0.8966 -0.2429 0.3704
vn 0.7033 -0.7037 -0.1012
vn 0.8306 -0.4585 -0.3161
vn 0.6686 0.1341 -0.7315
vn 0.2738 -0.2785 0.9206
vn 0.4510 0.2606 0.8536
vn -0.4069 -0.1791 0.8957
vn 0.0590 -0.9912 0.1182
vn -0.5987 -0.7387 0.3096
vn 0.2858 0.9576 -0.0356
vn 0.4139 0.8193 -0.3967
vn -0.1344 0.8405 -0.5249
vn 0.4256 0.8178 0.3874
vn -0.8136 -0.0884 0.5746
vn -0.8704 0.1946 0.4522
vn -0.6600 0.7454 -0.0939
vn -0.6634 0.5976 -0.4504
vn 0.0485 0.0347 -0.9982
vn -0.7281 -0.4556 -0.5121
vn -0.1544 -0.7377 -0.6572
vn 0.5069 -0.4381 -0.7424
vn -0.2408 0.7711 0.5895
vn 0.9801 -0.1542 -0.1252
vn 0.7098 0.7037 0.0302
vn 0.7005 0.7032 0.1219
vn 0.8430 -0.0522 0.5353
vn 0.7827 -0.4898 0.3840
vn -0.2314 -0.0720 0.9702
vn -0.1657 0.3001 0.9394
vn 0.5725 0.0205 0.8196
vn 0.4173 0.8132 0.4056
vn 0.3107 -0.6103 0.7287
vn -0.2780 -0.9593 0.0495
vn 0.4332 -0.8660 -0.2496
vn -0.3605 -0.6541 0.6650
vn -0.1105 0.9248 0.3641
vn 0.0667 0.9937 0.0899
vn -0.0271 0.8146 -0.5794
vn 0.4418 0.8324 -0.3346
vn -0.2856 0.9307 -0.2285
vn 0.0328 0.8896 -0.4556
vn -0.3521 0.9162 0.1915
vn 0.2856 -0.9307 0.2285
vn -0.2849 0.9304 -0.2305
vn -0.2808 0.9319 -0.2295
vn -0.2842 0.9312 -0.2284
vn -0.9960 -0.0890 0.0048
vn -0.0132 0.0536 0.9985
vn 0.9914 0.1306 -0.0104
vn 0.8967 0.4413 -0.0351
vn -0.0085 0.0404 0.9991
vn 0.7961 0.6023 -0.0589
vn -0.0089 0.0087 0.9999
vn 0.7672 0.6330 -0.1034
vn 0.1318 -0.0665 0.9890
vn -0.5256 -0.8447 0.1007
vn 0.0578 -0.1771 -0.9825
vn -0.7937 -0.6046 0.0676
vn -0.0752 -0.0112 -0.9971
vn -0.9032 -0.4271 0.0418
vn 0.0229 -0.0474 -0.9986
vn 0.0099 -0.0444 -0.9990
vn 0.4392 -0.0813 -0.8947
vn -0.2137 -0.7450 -0.6319
vn -0.3353 0.6789 0.6532
vn 0.2652 -0.6451 0.7166
vt 0.625000 0.250000
vt 0.395458 0.000000
vt 0.625000 0.000000
vt 0.000000 0.000000
vt 0.625000 1.000000
vt 0.625000 0.500000
vt 0.416881 0.750000
vt 0.408031 0.500000
vt 0.625000 0.750000
vt 0.875000 0.750000
vt 0.385392 0.250000
vt 0.562500 0.091895
vt 0.528468 0.219651
vt 0.498237 0.109338
vt 0.625000 0.021622
vt 0.529392 0.000000
vt 0.625000 0.155486
vt 0.383373 0.170497
vt 0.415119 0.026139
vt 0.613221 0.323415
vt 0.476781 0.401415
vt 0.498968 0.312500
vt 0.404029 0.499548
vt 0.375000 0.375000
vt 0.590265 0.561345
vt 0.535202 0.647273
vt 0.500000 0.520640
vt 0.425271 0.757303
vt 0.437500 0.594895
vt 0.331791 0.629547
vt 0.659419 0.488224
vt 0.500000 0.848840
vt 0.408018 0.900749
vt 0.561350 0.750000
vt 0.562500 0.848126
vt 0.529392 0.974249
vt 0.421145 1.000000
vt 0.250000 0.544613
vt 0.226069 0.657665
vt 0.149644 0.556844
vt 0.125000 0.723861
vt 0.836234 0.584367
vt 0.856404 0.728378
vt 0.789374 0.654804
vt 0.705171 0.562500
vt 0.803101 0.500000
vt 0.684624 0.686515
vt 0.733427 0.738901
vt 0.625000 0.978475
vt 0.625000 0.854848
vt 0.226566 0.750000
vt 0.384952 0.731819
vt 0.766376 0.631435
vt 0.875000 0.500000
s 0
usemtl cherry
f 38/12/18 25/13/18 39/14/18
f 37/15/19 38/12/19 23/16/19
f 24/17/20 25/13/20 38/12/20
f 39/14/21 25/13/21 26/18/21
f 22/19/22 39/14/22 26/18/22
f 41/20/23 42/21/23 40/22/23
f 25/13/24 41/20/24 40/22/24
f 42/21/25 30/23/25 27/24/25
f 32/25/26 44/26/26 29/27/26
f 44/26/27 35/28/27 43/29/27
f 30/23/28 43/29/28 31/30/28
f 29/27/29 43/29/29 30/23/29
f 29/27/30 28/31/30 32/25/30
f 35/28/31 45/32/31 34/33/31
f 21/34/32 46/35/32 45/32/32
f 23/36/33 22/37/33 34/33/33
f 27/38/34 31/30/34 47/39/34
f 26/40/35 47/39/35 22/41/35
f 24/42/36 37/43/36 49/44/36
f 28/31/37 48/45/37 32/25/37
f 41/46/38 24/42/38 48/45/38
f 33/47/39 36/48/39 21/34/39
f 22/19/40 23/16/40 39/14/40
f 23/16/41 38/12/41 39/14/41
f 37/15/42 24/17/42 38/12/42
f 25/13/43 24/17/43 41/20/43
f 42/21/44 41/20/44 28/31/44
f 26/18/45 25/13/45 40/22/45
f 27/24/46 40/22/46 42/21/46
f 42/21/47 29/27/47 30/23/47
f 37/49/48 46/35/48 36/50/48
f 43/29/49 29/27/49 44/26/49
f 32/25/50 33/47/50 44/26/50
f 44/26/51 33/47/51 21/34/51
f 44/26/52 21/34/52 35/28/52
f 43/29/53 35/28/53 31/30/53
f 45/32/54 23/36/54 34/33/54
f 45/32/55 46/35/55 23/36/55
f 35/28/56 21/34/56 45/32/56
f 21/34/57 36/50/57 46/35/57
f 34/51/58 31/30/58 35/52/58
f 26/40/59 27/38/59 47/39/59
f 27/38/60 30/23/60 31/30/60
f 47/39/61 34/51/61 22/41/61
f 48/45/62 24/42/62 50/53/62
f 24/42/63 49/44/63 50/53/63
f 28/31/64 41/46/64 48/45/64
f 48/45/65 33/47/65 32/25/65
f 33/47/66 19/4/66 36/48/66
f 49/44/67 37/43/67 36/48/67
f 50/53/68 33/47/68 48/45/68
f 20/8/69 33/47/69 19/4/69
f 33/47/66 50/53/66 20/8/66
f 18/11/70 20/8/70 50/53/70
f 50/53/71 49/44/71 18/11/71
f 18/11/71 49/44/71 17/2/71
f 49/44/71 36/48/71 17/2/71
f 19/4/72 17/2/72 36/48/72
f 29/27/89 42/21/89 28/31/89
f 27/24/90 26/18/90 40/22/90
f 37/49/91 23/36/91 46/35/91
f 34/51/92 47/39/92 31/30/92
usemtl apple_green
f 16/1/1 17/2/1 1/3/1
f 19/4/2 1/5/2 17/2/2
f 3/6/3 19/7/3 20/8/3
f 2/9/4 5/6/4 4/9/4
f 1/5/5 4/9/5 6/5/5
f 4/9/6 8/6/6 7/9/6
f 6/5/7 7/9/7 9/5/7
f 8/6/8 10/9/8 7/9/8
f 9/5/9 10/9/9 12/5/9
f 11/6/10 12/10/10 10/9/10
f 9/3/11 13/1/11 14/1/11
f 14/1/12 11/6/12 8/6/12
f 6/3/13 14/1/13 15/1/13
f 15/1/14 8/6/14 5/6/14
f 1/3/15 15/1/15 16/1/15
f 16/1/16 5/6/16 3/6/16
f 16/1/17 20/8/17 18/11/17
f 16/1/73 18/11/73 17/2/73
f 19/4/74 2/9/74 1/5/74
f 3/6/75 2/9/75 19/7/75
f 2/9/76 3/6/76 5/6/76
f 1/5/77 2/9/77 4/9/77
f 4/9/78 5/6/78 8/6/78
f 6/5/79 4/9/79 7/9/79
f 8/6/80 11/6/80 10/9/80
f 9/5/81 7/9/81 10/9/81
f 11/6/10 13/54/10 12/10/10
f 9/3/82 12/3/82 13/1/82
f 14/1/83 13/1/83 11/6/83
f 6/3/84 9/3/84 14/1/84
f 15/1/85 14/1/85 8/6/85
f 1/3/86 6/3/86 15/1/86
f 16/1/87 15/1/87 5/6/87
f 16/1/88 3/6/88 20/8/88
