# Created by Open3D 
# object name: cherry_single_repaired
# number of vertices: 50
# number of triangles: 96
v -0.773277 0.312764 4.64668
vn -0.845975 0.531894 0.0376219
v -0.759052 0.237159 4.49108
vn -0.847624 0.0552551 -0.527713
v -0.801046 0.197193 4.64295
vn -0.959808 -0.250511 0.126542
v -0.66366 0.413846 4.67863
vn -0.458107 0.800603 0.386229
v -0.703045 0.282581 4.79486
vn -0.559467 0.238341 0.793845
v -0.654991 0.40696 4.5631
vn -0.515178 0.794759 -0.320859
v -0.680263 0.015611 4.57618
vn -0.703851 -0.685591 -0.185899
v -0.711005 0.116771 4.75808
vn -0.686066 -0.501031 0.527524
v -0.635083 0.318689 4.41665
vn -0.273385 0.429091 -0.860895
v -0.540415 0.121492 4.41439
vn 0.18674 -0.346068 -0.919437
v -0.648198 0.135789 4.42366
vn -0.420037 -0.448107 -0.789157
v -0.438209 0.061469 4.5196
vn 0.528876 -0.705244 -0.472145
v -0.564238 -0.017994 4.57655
vn 0.00694362 -0.896707 -0.442569
v -0.385369 0.322788 4.51102
vn 0.734726 0.579041 -0.353396
v -0.349738 0.281305 4.64
vn 0.971997 0.173463 0.158532
v -0.38529 0.181108 4.48513
vn 0.783472 -0.157047 -0.601255
v -0.441566 0.142199 4.77105
vn 0.676747 -0.310013 0.667762
v -0.382102 0.105544 4.60309
vn 0.907717 -0.40216 0.119651
v -0.480806 -0.002266 4.66679
vn 0.515596 -0.776668 0.361868
v -0.481367 0.329382 4.42449
vn 0.326847 0.357733 -0.874756
v -0.53446 0.255949 4.83309
vn 0.1725 0.0155538 0.984887
v -0.599084 0.104228 4.80642
vn -0.0136772 -0.422728 0.906154
v -0.415578 0.328124 4.74825
vn 0.681315 0.438188 0.586346
v -0.532321 0.362505 4.79943
vn -0.0345349 0.628524 0.777023
v -0.589171 -0.004135 4.7052
vn -0.272643 -0.864092 0.423097
v -0.608127 0.396135 4.64805
vn 0.0791853 0.984322 -0.157608
v -0.537855 0.422784 4.55845
vn 0.108694 0.906297 -0.408426
v -0.492609 0.42601 4.62621
vn 0.556732 0.827458 0.0732364
v -0.56228 0.424306 4.70635
vn 0.185985 0.932437 0.309791
v -0.575282 0.397181 4.61212
vn -0.150147 0.963509 0.221598
v -0.5531 0.412266 4.64584
vn 0.637389 0.54659 0.543116
v -0.552449 0.405851 4.61889
vn 0.562444 -0.157145 -0.811765
v -0.577369 0.398296 4.6192
vn -0.727905 0.142726 -0.670659
v -0.577822 0.404822 4.64625
vn -0.87272 0.433187 0.225185
v -0.588153 0.51874 4.61352
vn -0.638897 -0.184749 -0.746779
v -0.588153 0.520812 4.63955
vn -0.656553 -0.202648 0.726548
v -0.568406 0.525838 4.6134
vn 0.844021 0.197552 -0.498599
v -0.568406 0.527911 4.63943
vn 0.837509 0.34701 0.422093
v -0.636485 0.663537 4.60554
vn 0.693254 0.39939 -0.599906
v -0.636485 0.66625 4.63326
vn 0.689969 0.48222 0.539821
v -0.654196 0.659842 4.63316
vn -0.645042 -0.41547 0.641331
v -0.765917 0.835237 4.61187
vn 0.638185 0.495675 -0.589089
v -0.765142 0.836317 4.63063
vn 0.44021 0.324012 0.837395
v -0.78025 0.825185 4.6319
vn -0.380869 -0.514943 0.767967
v -0.809758 0.893032 4.64039
vn 0.472077 0.619191 0.627492
v -0.835486 0.861075 4.64464
vn -0.759388 -0.0563639 0.648192
v -0.812827 0.890051 4.59937
vn -0.0242542 0.604427 -0.796291
v -0.838555 0.858094 4.60362
vn -0.665608 -0.573649 -0.477381
v -0.781025 0.824104 4.61313
vn -0.621017 -0.569921 -0.538078
v -0.654196 0.65713 4.60544
vn -0.70882 -0.408623 -0.57498
f 1//1 2//2 3//3
f 4//4 1//1 5//5
f 6//6 2//2 1//1
f 3//3 2//2 7//7
f 8//8 3//3 7//7
f 9//9 10//10 11//11
f 2//2 9//9 11//11
f 10//10 12//12 13//13
f 14//14 15//15 16//16
f 15//15 17//17 18//18
f 12//12 18//18 19//19
f 16//16 18//18 12//12
f 16//16 20//20 14//14
f 17//17 21//21 22//22
f 23//23 24//24 21//21
f 5//5 8//8 22//22
f 13//13 19//19 25//25
f 7//7 25//25 8//8
f 6//6 4//4 26//26
f 20//20 27//27 14//14
f 9//9 6//6 27//27
f 28//28 29//29 23//23
f 8//8 5//5 3//3
f 5//5 1//1 3//3
f 4//4 6//6 1//1
f 2//2 6//6 9//9
f 10//10 9//9 20//20
f 7//7 2//2 11//11
f 13//13 11//11 10//10
f 10//10 16//16 12//12
f 4//4 24//24 29//29
f 18//18 16//16 15//15
f 14//14 28//28 15//15
f 15//15 28//28 23//23
f 15//15 23//23 17//17
f 18//18 17//17 19//19
f 21//21 5//5 22//22
f 21//21 24//24 5//5
f 17//17 23//23 21//21
f 23//23 29//29 24//24
f 22//22 19//19 17//17
f 7//7 13//13 25//25
f 13//13 12//12 19//19
f 25//25 22//22 8//8
f 27//27 6//6 30//30
f 6//6 26//26 30//30
f 20//20 9//9 27//27
f 27//27 28//28 14//14
f 28//28 31//31 29//29
f 26//26 4//4 29//29
f 30//30 28//28 27//27
f 32//32 28//28 31//31
f 28//28 30//30 32//32
f 33//33 32//32 30//30
f 30//30 26//26 33//33
f 33//33 26//26 34//34
f 26//26 29//29 34//34
f 31//31 34//34 29//29
f 16//16 10//10 20//20
f 13//13 7//7 11//11
f 4//4 5//5 24//24
f 22//22 25//25 19//19
f 35//35 34//34 36//36
f 31//31 36//36 34//34
f 37//37 31//31 32//32
f 38//38 39//39 40//40
f 36//36 40//40 41//41
f 40//40 42//42 43//43
f 41//41 43//43 44//44
f 42//42 45//45 43//43
f 44//44 45//45 46//46
f 47//47 46//46 45//45
f 44//44 48//48 49//49
f 49//49 47//47 42//42
f 41//41 49//49 50//50
f 50//50 42//42 39//39
f 36//36 50//50 35//35
f 35//35 39//39 37//37
f 35//35 32//32 33//33
f 35//35 33//33 34//34
f 31//31 38//38 36//36
f 37//37 38//38 31//31
f 38//38 37//37 39//39
f 36//36 38//38 40//40
f 40//40 39//39 42//42
f 41//41 40//40 43//43
f 42//42 47//47 45//45
f 44//44 43//43 45//45
f 47//47 48//48 46//46
f 44//44 46//46 48//48
f 49//49 48//48 47//47
f 41//41 44//44 49//49
f 50//50 49//49 42//42
f 36//36 41//41 50//50
f 35//35 50//50 39//39
f 35//35 37//37 32//32
